<svg id="visual" viewBox="0 0 960 540" width="960" height="540" xmlns="http://www.w3.org/2000/svg" xmlns:xlink="http://www.w3.org/1999/xlink" version="1.1"><path d="M0 212L14.5 194.8C29 177.7 58 143.3 87.2 137C116.3 130.7 145.7 152.3 174.8 165.8C204 179.3 233 184.7 262 182C291 179.3 320 168.7 349 169.5C378 170.3 407 182.7 436.2 194.3C465.3 206 494.7 217 523.8 222.5C553 228 582 228 611 203.7C640 179.3 669 130.7 698 129.7C727 128.7 756 175.3 785.2 174.5C814.3 173.7 843.7 125.3 872.8 126.3C902 127.3 931 177.7 945.5 202.8L960 228L960 0L945.5 0C931 0 902 0 872.8 0C843.7 0 814.3 0 785.2 0C756 0 727 0 698 0C669 0 640 0 611 0C582 0 553 0 523.8 0C494.7 0 465.3 0 436.2 0C407 0 378 0 349 0C320 0 291 0 262 0C233 0 204 0 174.8 0C145.7 0 116.3 0 87.2 0C58 0 29 0 14.5 0L0 0Z" fill="#000000"></path><path d="M0 276L14.5 263.5C29 251 58 226 87.2 223.3C116.3 220.7 145.7 240.3 174.8 251.2C204 262 233 264 262 253.2C291 242.3 320 218.7 349 212.3C378 206 407 217 436.2 237.8C465.3 258.7 494.7 289.3 523.8 301.8C553 314.3 582 308.7 611 281.7C640 254.7 669 206.3 698 205.5C727 204.7 756 251.3 785.2 249.5C814.3 247.7 843.7 197.3 872.8 192.8C902 188.3 931 229.7 945.5 250.3L960 271L960 226L945.5 200.8C931 175.7 902 125.3 872.8 124.3C843.7 123.3 814.3 171.7 785.2 172.5C756 173.3 727 126.7 698 127.7C669 128.7 640 177.3 611 201.7C582 226 553 226 523.8 220.5C494.7 215 465.3 204 436.2 192.3C407 180.7 378 168.3 349 167.5C320 166.7 291 177.3 262 180C233 182.7 204 177.3 174.8 163.8C145.7 150.3 116.3 128.7 87.2 135C58 141.3 29 175.7 14.5 192.8L0 210Z" fill="#6f01ba"></path><path d="M0 390L14.5 377.3C29 364.7 58 339.3 87.2 337.5C116.3 335.7 145.7 357.3 174.8 370.8C204 384.3 233 389.7 262 378C291 366.3 320 337.7 349 324.2C378 310.7 407 312.3 436.2 328.5C465.3 344.7 494.7 375.3 523.8 383.5C553 391.7 582 377.3 611 355.7C640 334 669 305 698 306.8C727 308.7 756 341.3 785.2 338.7C814.3 336 843.7 298 872.8 290.7C902 283.3 931 306.7 945.5 318.3L960 330L960 269L945.5 248.3C931 227.7 902 186.3 872.8 190.8C843.7 195.3 814.3 245.7 785.2 247.5C756 249.3 727 202.7 698 203.5C669 204.3 640 252.7 611 279.7C582 306.7 553 312.3 523.8 299.8C494.7 287.3 465.3 256.7 436.2 235.8C407 215 378 204 349 210.3C320 216.7 291 240.3 262 251.2C233 262 204 260 174.8 249.2C145.7 238.3 116.3 218.7 87.2 221.3C58 224 29 249 14.5 261.5L0 274Z" fill="#a100e9"></path><path d="M0 449L14.5 432C29 415 58 381 87.2 382.8C116.3 384.7 145.7 422.3 174.8 443.8C204 465.3 233 470.7 262 453.5C291 436.3 320 396.7 349 377.8C378 359 407 361 436.2 379C465.3 397 494.7 431 523.8 442.7C553 454.3 582 443.7 611 424.8C640 406 669 379 698 379.8C727 380.7 756 409.3 785.2 406.7C814.3 404 843.7 370 872.8 362.8C902 355.7 931 375.3 945.5 385.2L960 395L960 328L945.5 316.3C931 304.7 902 281.3 872.8 288.7C843.7 296 814.3 334 785.2 336.7C756 339.3 727 306.7 698 304.8C669 303 640 332 611 353.7C582 375.3 553 389.7 523.8 381.5C494.7 373.3 465.3 342.7 436.2 326.5C407 310.3 378 308.7 349 322.2C320 335.7 291 364.3 262 376C233 387.7 204 382.3 174.8 368.8C145.7 355.3 116.3 333.7 87.2 335.5C58 337.3 29 362.7 14.5 375.3L0 388Z" fill="#6f01ba"></path><path d="M0 541L14.5 541C29 541 58 541 87.2 541C116.3 541 145.7 541 174.8 541C204 541 233 541 262 541C291 541 320 541 349 541C378 541 407 541 436.2 541C465.3 541 494.7 541 523.8 541C553 541 582 541 611 541C640 541 669 541 698 541C727 541 756 541 785.2 541C814.3 541 843.7 541 872.8 541C902 541 931 541 945.5 541L960 541L960 393L945.5 383.2C931 373.3 902 353.7 872.8 360.8C843.7 368 814.3 402 785.2 404.7C756 407.3 727 378.7 698 377.8C669 377 640 404 611 422.8C582 441.7 553 452.3 523.8 440.7C494.7 429 465.3 395 436.2 377C407 359 378 357 349 375.8C320 394.7 291 434.3 262 451.5C233 468.7 204 463.3 174.8 441.8C145.7 420.3 116.3 382.7 87.2 380.8C58 379 29 413 14.5 430L0 447Z" fill="#000000"></path></svg>